# Blender v2.93.4 OBJ File: 'NormalMaze.blend'
# www.blender.org
mtllib NormalMaze.mtl
o Plane
v -10.000000 0.000000 10.000000
v 10.000000 0.000000 10.000000
v -10.000000 0.000000 -10.000000
v 10.000000 0.000000 -10.000000
v -10.000000 0.000000 -7.500000
v -10.000000 0.000000 -5.000000
v -10.000000 0.000000 -2.500000
v -10.000000 0.000000 0.000000
v -10.000000 0.000000 2.500000
v -10.000000 0.000000 5.000000
v -10.000000 0.000000 7.500000
v -7.500000 0.000000 10.000000
v -5.000000 0.000000 10.000000
v -2.500000 0.000000 10.000000
v 0.000000 0.000000 10.000000
v 2.500000 0.000000 10.000000
v 5.000000 0.000000 10.000000
v 7.500000 0.000000 10.000000
v 10.000000 0.000000 7.500000
v 10.000000 0.000000 5.000000
v 10.000000 0.000000 2.500000
v 10.000000 0.000000 0.000000
v 10.000000 0.000000 -2.500000
v 10.000000 0.000000 -5.000000
v 10.000000 0.000000 -7.500000
v 7.500000 0.000000 -10.000000
v 5.000000 0.000000 -10.000000
v 2.500000 0.000000 -10.000000
v 0.000000 0.000000 -10.000000
v -2.500000 0.000000 -10.000000
v -5.000000 0.000000 -10.000000
v -7.500000 0.000000 -10.000000
v -2.500000 0.000000 7.500000
v -2.500000 0.000000 5.000000
v -2.500000 0.000000 2.500000
v -2.500000 0.000000 0.000000
v -2.500000 0.000000 -2.500000
v -2.500000 0.000000 -5.000000
v -2.500000 0.000000 -7.500000
v 2.500000 0.000000 7.500000
v 2.500000 0.000000 5.000000
v 2.500000 0.000000 2.500000
v 2.500000 0.000000 -2.500000
v 2.500000 0.000000 -5.000000
v 2.500000 0.000000 -7.500000
v 5.000000 0.000000 2.500000
v 5.000000 0.000000 -2.500000
v 7.500000 0.000000 2.500000
v 7.500000 0.000000 -2.500000
v -10.000000 6.000000 7.500000
v -10.000000 6.000000 10.000000
v 7.500000 6.000000 10.000000
v 10.000000 6.000000 10.000000
v 10.000000 6.000000 -7.500000
v 10.000000 6.000000 -10.000000
v -7.500000 6.000000 -10.000000
v -10.000000 6.000000 -10.000000
v -10.000000 6.000000 -7.500000
v -10.000000 6.000000 -5.000000
v -10.000000 6.000000 -2.500000
v -10.000000 6.000000 0.000000
v -10.000000 6.000000 2.500000
v -10.000000 6.000000 5.000000
v -7.500000 6.000000 10.000000
v -5.000000 6.000000 10.000000
v -2.500000 6.000000 10.000000
v 2.500000 6.000000 10.000000
v 5.000000 6.000000 10.000000
v 10.000000 6.000000 7.500000
v 10.000000 6.000000 5.000000
v 10.000000 6.000000 2.500000
v 10.000000 6.000000 -2.500000
v 10.000000 6.000000 -5.000000
v 7.500000 6.000000 -10.000000
v 5.000000 6.000000 -10.000000
v 2.500000 6.000000 -10.000000
v -2.500000 6.000000 -10.000000
v -5.000000 6.000000 -10.000000
v -2.500000 6.000000 -7.500000
v -2.500000 6.000000 7.500000
v -2.500000 6.000000 5.000000
v -2.500000 6.000000 2.500000
v -2.500000 6.000000 0.000000
v -2.500000 6.000000 -2.500000
v -2.500000 6.000000 -5.000000
v 2.500000 6.000000 -7.500000
v 2.500000 6.000000 7.500000
v 2.500000 6.000000 5.000000
v 2.500000 6.000000 2.500000
v 2.500000 6.000000 -2.500000
v 2.500000 6.000000 -5.000000
v 5.000000 6.000000 2.500000
v 5.000000 6.000000 -2.500000
v 7.500000 6.000000 2.500000
v 7.500000 6.000000 -2.500000
vt 0.469930 -5.473709
vt 3.425522 -3.513758
vt 1.959774 0.424217
vt -5.426795 -3.492070
vt -3.956229 -5.462867
vt -1.000637 -3.502915
vt -3.927313 6.340217
vt -5.412337 2.409472
vt -3.941771 0.438676
vt 0.484388 0.427832
vt -0.995817 -1.535733
vt -0.990997 0.431446
vt -1.000637 -3.502912
vt -1.005456 -5.470095
vt 3.430341 -1.546578
vt 3.435160 0.420603
vt 1.945316 -5.477324
vt 3.420702 -5.480940
vt -0.995818 -1.535735
vt -0.990998 0.431446
vt -2.466384 0.435060
vt -3.941770 0.438675
vt -5.417157 0.442290
vt -5.421974 -1.524891
vt -2.480843 -5.466481
vt -1.005457 -5.470096
vt -5.431615 -5.459252
vt 6.390750 2.380556
vt 6.395569 4.347737
vt 4.925003 6.318532
vt 6.400389 6.314919
vt 3.449618 6.322148
vt 1.974231 6.325762
vt 3.435159 0.420604
vt 4.910545 0.416990
vt 6.385931 0.413375
vt 0.484388 0.427833
vt 1.959773 0.424218
vt 0.498845 6.329376
vt -0.976541 6.332990
vt -2.451927 6.336606
vt -0.990998 0.431447
vt -2.466385 0.435062
vt -5.402699 6.343833
vt -5.407518 4.376652
vt -5.417156 0.442291
vt 0.214763 0.402611
vt 0.327790 0.302174
vt 0.328553 0.401740
vt 0.331601 0.800005
vt 0.218574 0.900443
vt 0.217811 0.800876
vt 0.445391 0.799134
vt 0.332364 0.899572
vt 0.331601 0.800005
vt 0.329315 0.501307
vt 0.328553 0.401740
vt 0.443105 0.500435
vt 0.100973 0.403482
vt 0.214001 0.303045
vt 0.214763 0.402611
vt 0.558419 0.698697
vt 0.671447 0.598260
vt 0.672209 0.697826
vt 0.217049 0.701310
vt 0.217811 0.800876
vt 0.103259 0.702181
vt 0.556133 0.399998
vt 0.556895 0.499564
vt 0.442343 0.400869
vt 0.556133 0.399998
vt 0.669160 0.299561
vt 0.669923 0.399127
vt 0.900552 0.795650
vt 0.901314 0.895216
vt 0.786762 0.796521
vt 0.784475 0.497822
vt 0.785237 0.597389
vt 0.670685 0.498693
vt 0.559181 0.798263
vt 0.446154 0.898701
vt 0.445391 0.799134
vt 0.329315 0.501307
vt 0.330077 0.600873
vt 0.215525 0.502178
vt 0.216287 0.601744
vt 0.214001 0.303045
vt 0.330077 0.600873
vt 0.330839 0.700439
vt 0.216287 0.601744
vt 0.217049 0.701310
vt 0.332364 0.899572
vt 0.330839 0.700439
vt 0.330077 0.600873
vt 0.444629 0.699568
vt 0.443867 0.600002
vt 0.446153 0.898701
vt 0.327790 0.302174
vt 0.441580 0.301303
vt 0.442343 0.400869
vt 0.443867 0.600002
vt 0.330077 0.600873
vt 0.102497 0.602615
vt 0.101735 0.503049
vt 0.216287 0.601744
vt 0.215525 0.502178
vt 0.100211 0.303916
vt 0.559943 0.897830
vt 0.559181 0.798263
vt 0.673733 0.896958
vt 0.672971 0.797392
vt 0.557657 0.599131
vt 0.218574 0.900443
vt 0.104784 0.901314
vt 0.104021 0.801748
vt 0.102497 0.602615
vt 0.557657 0.599131
vt 0.443867 0.600002
vt 0.443105 0.500435
vt 0.441580 0.301303
vt 0.555370 0.300432
vt 0.670685 0.498693
vt 0.671447 0.598260
vt 0.556895 0.499564
vt 0.557657 0.599131
vt 0.555371 0.300432
vt 0.783713 0.398256
vt 0.782951 0.298690
vt 0.896741 0.297819
vt 0.782188 0.199124
vt 0.895978 0.198252
vt 0.781426 0.099557
vt 0.895216 0.098686
vt 0.897503 0.397385
vt 0.785237 0.597389
vt 0.784475 0.497822
vt 0.898265 0.496951
vt 0.899027 0.596518
vt 0.785999 0.696955
vt 0.899789 0.696084
vt 0.787524 0.896087
vt 0.672971 0.797392
vt 0.672209 0.697826
vt 0.786761 0.796521
vt 0.671447 0.598260
vt 0.785999 0.696955
vt 0.787524 0.896087
vt 0.669923 0.399127
vt 0.783713 0.398256
vt 0.669161 0.299561
vt 0.782951 0.298690
vt 0.782188 0.199124
vt 0.668398 0.199995
vt 0.673734 0.896958
vt 0.781426 0.099557
vt 0.667636 0.100428
vt 0.444629 0.699568
vt 0.558419 0.698697
vt 0.559943 0.897830
vt -4.331160 1.520319
vt -1.915579 1.520319
vt -1.915580 6.351480
vt 10.162321 1.520319
vt 10.162321 3.935899
vt 7.746740 1.520319
vt 10.162321 6.351478
vt 7.746742 6.351480
vt 5.331161 6.351480
vt 2.915580 6.351480
vt 5.331161 1.520319
vt 2.915580 1.520320
vt 0.500000 6.351480
vt 2.915580 -3.310842
vt 2.915580 -0.895261
vt -1.915579 -0.895260
vt -4.331161 6.351479
vt -6.746741 6.351479
vt -6.746741 1.520319
vt -9.162321 3.935899
vt 0.500000 -5.726421
vt 2.915580 -5.726421
vt -9.162321 6.351478
vt -1.915579 -3.310841
vt -1.915579 -5.726420
vt -9.162321 1.520319
vn 0.0000 1.0000 0.0000
vn 1.0000 0.0000 0.0000
vn 0.0000 0.0000 1.0000
vn 0.0000 0.0000 -1.0000
vn -1.0000 0.0000 0.0000
usemtl Roof
s off
f 86/1/1 93/2/1 73/3/1
f 70/4/1 94/5/1 88/6/1
f 50/7/1 65/8/1 80/9/1
f 73/3/1 54/10/1 74/11/1
f 54/10/1 55/12/1 74/11/1
f 74/11/1 75/13/1 73/3/1
f 75/13/1 76/14/1 86/1/1
f 73/3/1 75/13/1 86/1/1
f 95/15/1 72/16/1 73/3/1
f 91/17/1 90/18/1 93/2/1
f 93/2/1 95/15/1 73/3/1
f 86/1/1 91/17/1 93/2/1
f 87/19/1 67/20/1 68/21/1
f 52/22/1 53/23/1 69/24/1
f 87/19/1 68/21/1 52/22/1
f 92/25/1 89/26/1 88/6/1
f 88/6/1 87/19/1 52/22/1
f 52/22/1 69/24/1 70/4/1
f 70/4/1 71/27/1 94/5/1
f 94/5/1 92/25/1 88/6/1
f 88/6/1 52/22/1 70/4/1
f 78/28/1 56/29/1 58/30/1
f 56/29/1 57/31/1 58/30/1
f 58/30/1 59/32/1 78/28/1
f 59/32/1 60/33/1 85/34/1
f 78/28/1 59/32/1 85/34/1
f 79/35/1 77/36/1 78/28/1
f 83/37/1 84/38/1 61/39/1
f 84/38/1 85/34/1 60/33/1
f 85/34/1 79/35/1 78/28/1
f 61/39/1 62/40/1 83/37/1
f 62/40/1 63/41/1 82/42/1
f 60/33/1 61/39/1 84/38/1
f 80/9/1 81/43/1 50/7/1
f 81/43/1 82/42/1 63/41/1
f 82/42/1 83/37/1 62/40/1
f 50/7/1 51/44/1 64/45/1
f 63/41/1 50/7/1 81/43/1
f 65/8/1 66/46/1 80/9/1
f 50/7/1 64/45/1 65/8/1
usemtl Wall
f 73/47/2 23/48/2 24/49/2
f 18/50/3 53/51/3 52/52/3
f 74/53/4 4/54/4 26/55/4
f 95/56/3 93/57/3 49/58/3
f 44/59/5 90/60/5 91/61/5
f 32/62/4 57/63/4 56/64/4
f 87/65/5 88/66/5 40/67/5
f 92/68/4 94/69/4 46/70/4
f 64/71/3 1/72/3 12/73/3
f 80/74/2 66/75/2 33/76/2
f 61/77/5 60/78/5 8/79/5
f 69/80/2 2/81/2 19/82/2
f 24/49/2 25/83/2 73/47/2
f 25/83/2 4/84/2 54/85/2
f 73/47/2 25/83/2 54/85/2
f 4/84/2 55/86/2 54/85/2
f 73/47/2 72/87/2 23/48/2
f 16/88/3 17/89/3 67/90/3
f 17/89/3 18/50/3 68/91/3
f 67/90/3 17/89/3 68/91/3
f 18/50/3 2/92/3 53/51/3
f 52/52/3 68/91/3 18/50/3
f 26/55/4 27/93/4 74/53/4
f 27/93/4 28/94/4 75/95/4
f 74/53/4 27/93/4 75/95/4
f 28/94/4 76/96/4 75/95/4
f 74/53/4 55/97/4 4/54/4
f 90/98/3 43/99/3 47/100/3
f 49/58/3 23/101/3 72/102/3
f 90/98/3 47/100/3 93/57/3
f 47/100/3 49/58/3 93/57/3
f 72/102/3 95/56/3 49/58/3
f 28/103/5 45/104/5 76/105/5
f 45/104/5 44/59/5 86/106/5
f 76/105/5 45/104/5 86/106/5
f 44/59/5 43/107/5 90/60/5
f 91/61/5 86/106/5 44/59/5
f 30/108/4 31/109/4 77/110/4
f 31/109/4 32/62/4 78/111/4
f 77/110/4 31/109/4 78/111/4
f 32/62/4 3/112/4 57/63/4
f 56/64/4 78/111/4 32/62/4
f 89/113/5 42/114/5 41/115/5
f 40/67/5 16/116/5 67/90/5
f 89/113/5 41/115/5 88/66/5
f 41/115/5 40/67/5 88/66/5
f 67/90/5 87/65/5 40/67/5
f 71/117/4 21/118/4 48/119/4
f 46/70/4 42/120/4 89/121/4
f 71/117/4 48/119/4 94/69/4
f 48/119/4 46/70/4 94/69/4
f 89/121/4 92/68/4 46/70/4
f 12/73/3 13/122/3 64/71/3
f 13/122/3 14/123/3 65/124/3
f 64/71/3 13/122/3 65/124/3
f 14/123/3 66/125/3 65/124/3
f 64/71/3 51/126/3 1/72/3
f 37/127/2 38/128/2 85/129/2
f 38/128/2 39/130/2 79/131/2
f 39/130/2 30/132/2 77/133/2
f 79/131/2 85/129/2 38/128/2
f 85/129/2 84/134/2 37/127/2
f 39/130/2 77/133/2 79/131/2
f 35/135/2 36/136/2 83/137/2
f 36/136/2 37/127/2 84/134/2
f 84/134/2 83/137/2 36/136/2
f 83/137/2 82/138/2 35/135/2
f 33/76/2 34/139/2 81/140/2
f 34/139/2 35/135/2 82/138/2
f 82/138/2 81/140/2 34/139/2
f 81/140/2 80/74/2 33/76/2
f 66/75/2 14/141/2 33/76/2
f 5/142/5 6/143/5 58/144/5
f 6/143/5 7/145/5 59/146/5
f 5/142/5 58/144/5 57/147/5
f 8/79/5 9/148/5 62/149/5
f 9/148/5 10/150/5 63/151/5
f 50/152/5 10/150/5 11/153/5
f 3/154/5 5/142/5 57/147/5
f 10/150/5 50/152/5 63/151/5
f 50/152/5 11/153/5 51/155/5
f 58/144/5 6/143/5 59/146/5
f 11/153/5 1/156/5 51/155/5
f 7/145/5 8/79/5 60/78/5
f 60/78/5 59/146/5 7/145/5
f 63/151/5 62/149/5 9/148/5
f 62/149/5 61/77/5 8/79/5
f 19/82/2 20/157/2 69/80/2
f 20/157/2 21/118/2 70/158/2
f 69/80/2 20/157/2 70/158/2
f 21/118/2 71/117/2 70/158/2
f 69/80/2 53/159/2 2/81/2
usemtl Floor
f 41/160/1 42/161/1 35/162/1
f 28/163/1 29/164/1 45/165/1
f 29/164/1 30/166/1 39/167/1
f 39/167/1 38/168/1 45/165/1
f 38/168/1 37/169/1 44/170/1
f 45/165/1 38/168/1 44/170/1
f 29/164/1 39/167/1 45/165/1
f 43/171/1 44/170/1 37/169/1
f 37/169/1 36/172/1 43/171/1
f 36/172/1 35/162/1 42/161/1
f 43/171/1 36/172/1 42/161/1
f 49/173/1 47/174/1 46/175/1
f 47/174/1 43/171/1 42/161/1
f 35/162/1 34/176/1 41/160/1
f 34/176/1 33/177/1 40/178/1
f 40/178/1 33/177/1 15/179/1
f 22/180/1 23/181/1 49/173/1
f 33/177/1 14/182/1 15/179/1
f 22/180/1 49/173/1 48/183/1
f 47/174/1 42/161/1 46/175/1
f 48/183/1 21/184/1 22/180/1
f 46/175/1 48/183/1 49/173/1
f 15/179/1 16/185/1 40/178/1
f 40/178/1 41/160/1 34/176/1
